HIERARCHY
ROOT Pelvis
{
	OFFSET 0.000000 0.941512 0.000000
	CHANNELS 6 Xposition Yposition Zposition Zrotation Yrotation Xrotation 
	JOINT Pelvis_L_Hip
	{
		OFFSET 0.000000 0.000000 0.000000
		CHANNELS 3 Zrotation Yrotation Xrotation
		JOINT L_Hip
		{
			OFFSET 0.062321 -0.080322 -0.016990
			CHANNELS 3 Zrotation Yrotation Xrotation
			JOINT L_Knee
			{
				OFFSET 0.093051 -0.381305 -0.029784
				CHANNELS 3 Zrotation Yrotation Xrotation
				JOINT L_Ankle
				{
					OFFSET -0.010371 -0.431000 -0.033614
					CHANNELS 3 Zrotation Yrotation Xrotation
					End Site #name: L_Foot
					{
						OFFSET 0.069299 -0.038670 0.119418
					}
				}
			}
		}
	}
	JOINT Pelvis_R_Hip
	{
		OFFSET 0.000000 0.000000 0.000000
		CHANNELS 3 Zrotation Yrotation Xrotation
		JOINT R_Hip
		{
			OFFSET -0.055334 -0.094904 -0.002373
			CHANNELS 3 Zrotation Yrotation Xrotation
			JOINT R_Knee
			{
				OFFSET -0.064207 -0.384370 -0.019592
				CHANNELS 3 Zrotation Yrotation Xrotation
				JOINT R_Ankle
				{
					OFFSET 0.025418 -0.419734 -0.065953
					CHANNELS 3 Zrotation Yrotation Xrotation
					End Site #name: R_Foot
					{
						OFFSET -0.057233 -0.039888 0.132134
					}
				}
			}
		}
	}
	JOINT Pelvis_Spine1
	{
		OFFSET 0.000000 0.000000 0.000000
		CHANNELS 3 Zrotation Yrotation Xrotation
		JOINT Spine1
		{
			OFFSET -0.005562 0.124093 -0.043360
			CHANNELS 3 Zrotation Yrotation Xrotation
			JOINT Spine2
			{
				OFFSET 0.012244 0.139499 0.029894
				CHANNELS 3 Zrotation Yrotation Xrotation
				JOINT Spine3
				{
					OFFSET -0.002556 0.056561 0.009225
					CHANNELS 3 Zrotation Yrotation Xrotation
					JOINT Spine3_Neck
					{
						OFFSET 0.000000 0.000000 0.000000
						CHANNELS 3 Zrotation Yrotation Xrotation
						JOINT Neck
						{
							OFFSET -0.005205 0.217920 -0.024551
							CHANNELS 3 Zrotation Yrotation Xrotation
							End Site #name: Head
							{
								OFFSET 0.002365 0.091850 0.046637
							}
						}
					}
					JOINT Spine3_L_Collar
					{
						OFFSET 0.000000 0.000000 0.000000
						CHANNELS 3 Zrotation Yrotation Xrotation
						JOINT L_Collar
						{
							OFFSET 0.072225 0.116603 -0.009480
							CHANNELS 3 Zrotation Yrotation Xrotation
							JOINT L_Shoulder
							{
								OFFSET 0.115937 -0.058643 -0.021018
								CHANNELS 3 Zrotation Yrotation Xrotation
								JOINT L_Elbow
								{
									OFFSET 0.021994 -0.254722 -0.024492
									CHANNELS 3 Zrotation Yrotation Xrotation
									End Site #name: L_Wrist
									{
										OFFSET 0.048810 -0.240214 0.103329
									}
								}
							}
						}
					}
					JOINT Spine3_R_Collar
					{
						OFFSET 0.000000 0.000000 0.000000
						CHANNELS 3 Zrotation Yrotation Xrotation
						JOINT R_Collar
						{
							OFFSET -0.073372 0.120704 -0.024611
							CHANNELS 3 Zrotation Yrotation Xrotation
							JOINT R_Shoulder
							{
								OFFSET -0.108089 -0.054969 -0.020504
								CHANNELS 3 Zrotation Yrotation Xrotation
								JOINT R_Elbow
								{
									OFFSET -0.033684 -0.260739 0.009889
									CHANNELS 3 Zrotation Yrotation Xrotation
									End Site #name: R_Wrist
									{
										OFFSET -0.067980 -0.232763 0.118463
									}
								}
							}
						}
					}
				}
			}
		}
	}
}
MOTION
Frames: 16
Frame Time: 0.041667
-0.236375 0.922231 0.521189 -1.499359 23.198802 -4.376087 0.000000 0.000000 0.000000 13.486899 -2.744930 -9.261851 -8.534118 0.663438 18.575256 9.748892 30.930945 8.586922 0.000000 0.000000 0.000000 5.369251 -0.874070 3.034167 -2.581138 0.695950 3.948030 0.359585 15.945598 -9.721827 0.000000 0.000000 0.000000 -1.187756 0.457253 -2.431031 -3.074080 0.954149 6.593001 9.176739 12.929516 7.750945 0.000000 0.000000 0.000000 -4.070281 2.579276 -12.996411 0.000000 0.000000 0.000000 12.096345 -5.715439 0.884963 -25.810944 1.703545 -0.324977 -0.707289 -1.874344 -7.165509 0.000000 0.000000 0.000000 -24.342801 15.305981 -12.379161 21.985717 -6.365626 19.947764 5.522710 4.018467 -3.243806 
-0.239814 0.923936 0.520391 -1.584364 22.084611 -4.388956 0.000000 0.000000 0.000000 13.373851 -2.720641 -9.357438 -9.636421 0.907964 20.699898 9.572806 29.323694 6.712851 0.000000 0.000000 0.000000 5.805147 -0.859341 2.836236 -2.731793 0.670718 2.925342 1.181834 17.618885 -8.499146 0.000000 0.000000 0.000000 -1.082211 0.464489 -2.689384 -2.703903 0.891618 6.992536 8.765438 11.976885 7.181200 0.000000 0.000000 0.000000 -3.236681 2.249162 -12.789853 0.000000 0.000000 0.000000 12.721989 -6.356681 0.501230 -26.601882 1.693050 -0.789695 -0.777637 -1.649037 -6.020383 0.000000 0.000000 0.000000 -23.798145 14.335714 -11.124363 22.011003 -5.927932 18.726156 5.232146 3.584276 -2.490808 
-0.240761 0.926097 0.518397 -1.719028 21.107959 -4.374673 0.000000 0.000000 0.000000 13.113022 -2.686682 -9.401179 -10.665726 1.173058 22.529103 9.918572 28.254489 4.596529 0.000000 0.000000 0.000000 6.310760 -0.767745 2.303162 -3.334103 0.760445 2.491069 1.960555 19.207404 -7.444551 0.000000 0.000000 0.000000 -1.174308 0.482368 -2.724216 -2.001687 0.719411 6.725607 8.468974 11.101488 6.769437 0.000000 0.000000 0.000000 -2.277832 1.869401 -12.669483 0.000000 0.000000 0.000000 13.059017 -6.980889 0.030225 -27.226858 1.781199 -0.845124 -0.917225 -1.454739 -4.852140 0.000000 0.000000 0.000000 -23.098945 13.519153 -10.046241 21.778222 -5.593305 17.872217 5.129526 3.315437 -1.896202 
-0.239640 0.927199 0.515407 -2.286074 20.242773 -4.281430 0.000000 0.000000 0.000000 13.240918 -2.694279 -9.553948 -11.758037 1.483620 23.930813 10.468803 27.550001 2.533636 0.000000 0.000000 0.000000 7.266233 -0.590794 1.306345 -4.203213 0.930131 2.560291 2.485771 20.350938 -6.803805 0.000000 0.000000 0.000000 -0.964042 0.463866 -2.875786 -0.942220 0.424252 5.361883 8.141952 10.307591 7.291030 0.000000 0.000000 0.000000 -1.595794 1.584611 -12.273347 0.000000 0.000000 0.000000 13.251788 -7.644355 -0.487976 -27.792660 1.918561 -0.788477 -1.120986 -1.278096 -3.626396 0.000000 0.000000 0.000000 -22.134529 12.758692 -9.076938 21.149285 -5.298675 17.167292 5.192546 3.184585 -1.433133 
-0.235729 0.927417 0.511210 -2.589730 19.492246 -4.318108 0.000000 0.000000 0.000000 12.447604 -2.568192 -9.069553 -11.831854 1.548015 24.429004 10.467257 26.551809 1.350062 0.000000 0.000000 0.000000 7.693594 -0.372186 0.310358 -5.068361 1.152566 3.289372 2.779706 21.279416 -6.575020 0.000000 0.000000 0.000000 -0.633769 0.439122 -3.183000 -0.653320 0.359059 5.311365 7.855167 9.603902 7.088211 0.000000 0.000000 0.000000 -0.785103 1.243274 -12.032860 0.000000 0.000000 0.000000 13.612786 -8.260333 -0.924566 -28.280061 1.956783 -0.944893 -1.278992 -1.109174 -2.537777 0.000000 0.000000 0.000000 -21.723206 12.161369 -8.358439 21.365465 -5.002516 16.208143 5.160746 3.057567 -1.122134 
-0.229273 0.927618 0.505944 -2.941663 18.827569 -4.537528 0.000000 0.000000 0.000000 11.004593 -2.294280 -7.830198 -10.647076 1.285828 23.608130 9.775671 25.080763 1.182524 0.000000 0.000000 0.000000 7.835420 -0.139524 -0.666609 -5.684124 1.378470 4.529867 2.891065 21.904907 -6.590709 0.000000 0.000000 0.000000 -0.068664 0.369731 -3.422744 -0.674945 0.380211 5.727024 7.694547 8.989903 6.571075 0.000000 0.000000 0.000000 -0.076254 0.933766 -11.790682 0.000000 0.000000 0.000000 13.577666 -8.834225 -1.441010 -28.404093 2.069506 -0.677524 -1.434395 -1.030188 -1.863756 0.000000 0.000000 0.000000 -21.532772 11.910682 -7.974428 21.551699 -4.925540 15.970392 5.252284 3.482532 -2.176516 
-0.221953 0.927255 0.499612 -3.339405 18.304622 -4.469742 0.000000 0.000000 0.000000 9.659280 -2.062594 -6.880378 -9.468712 1.030370 22.354654 10.101166 24.490466 -0.059354 0.000000 0.000000 0.000000 8.104598 0.186959 -2.065398 -6.697151 1.724425 6.072865 2.831692 22.230530 -6.823978 0.000000 0.000000 0.000000 0.423429 0.328799 -3.807341 -0.650953 0.368270 5.530203 7.490243 8.481290 6.575572 0.000000 0.000000 0.000000 0.729007 0.613602 -12.007909 0.000000 0.000000 0.000000 13.817000 -9.308846 -1.785045 -28.652807 2.119044 -0.710833 -1.491395 -0.869618 -1.026003 0.000000 0.000000 0.000000 -21.648562 11.574541 -7.600861 22.357098 -4.725525 15.109029 5.140934 3.398120 -2.109494 
-0.213971 0.926795 0.491996 -3.719006 17.947314 -3.895275 0.000000 0.000000 0.000000 8.326456 -1.922957 -6.495865 -8.222882 0.775136 20.692970 10.758965 24.509094 -1.341349 0.000000 0.000000 0.000000 8.182560 0.673106 -4.138274 -7.558877 2.086964 7.940632 2.669793 22.309881 -7.156612 0.000000 0.000000 0.000000 0.690391 0.388720 -4.794094 -0.465934 0.321621 5.374299 7.348016 8.040439 6.706028 0.000000 0.000000 0.000000 1.557722 0.287425 -12.209536 0.000000 0.000000 0.000000 14.164850 -9.663134 -2.001644 -28.958424 2.135293 -0.870755 -1.769175 -0.790452 -0.121547 0.000000 0.000000 0.000000 -21.574561 11.168141 -7.182500 22.912982 -4.485815 14.215765 5.155392 3.363531 -1.989152 
-0.205659 0.927236 0.484056 -4.074623 17.675359 -3.502901 0.000000 0.000000 0.000000 7.194180 -1.764078 -5.963365 -7.140191 0.574957 18.843074 11.072008 24.435318 -2.021038 0.000000 0.000000 0.000000 8.189128 1.091812 -5.954171 -8.464784 2.483983 9.859335 2.616335 22.214081 -7.197077 0.000000 0.000000 0.000000 0.709720 0.439837 -5.319293 -0.222326 0.255789 5.035772 7.287087 7.761615 6.699398 0.000000 0.000000 0.000000 2.213144 0.019326 -12.211760 0.000000 0.000000 0.000000 14.460389 -9.878579 -2.122238 -29.089134 2.191949 -0.835421 -2.232221 -0.846594 0.516741 0.000000 0.000000 0.000000 -21.993825 10.938850 -6.970480 23.922300 -4.412657 13.735862 5.146777 3.442738 -2.222160 
-0.197751 0.928531 0.475816 -3.788391 17.544387 -2.837275 0.000000 0.000000 0.000000 5.810035 -1.655539 -5.794982 -6.576488 0.489266 17.185558 11.351690 24.686861 -2.326200 0.000000 0.000000 0.000000 7.418765 1.458256 -7.639904 -9.190736 2.821403 11.427563 2.642711 22.017689 -7.036649 0.000000 0.000000 0.000000 -0.318337 0.671226 -6.174405 0.001986 0.219033 5.412798 7.315157 7.541284 6.447295 0.000000 0.000000 0.000000 2.963901 -0.276084 -12.360216 0.000000 0.000000 0.000000 15.181818 -9.959015 -2.039643 -29.298961 2.124591 -1.208681 -2.748427 -0.925010 1.134003 0.000000 0.000000 0.000000 -22.045775 10.499978 -6.565873 24.733665 -4.173148 12.868961 5.242407 3.548010 -2.367088 
-0.189860 0.927775 0.467236 -3.846867 17.493881 -2.346586 0.000000 0.000000 0.000000 4.944715 -1.588315 -5.689782 -6.075212 0.420199 15.513738 11.768050 25.062643 -2.782254 0.000000 0.000000 0.000000 6.915658 1.824369 -9.431410 -9.718465 3.167342 13.479909 2.497962 21.521708 -7.091353 0.000000 0.000000 0.000000 -0.950815 0.803978 -6.680389 0.239399 0.164443 5.367218 7.265796 7.446418 6.364201 0.000000 0.000000 0.000000 3.614161 -0.537399 -12.356058 0.000000 0.000000 0.000000 15.676747 -10.027188 -1.983871 -29.221074 2.141029 -1.233785 -3.395808 -1.162573 1.285530 0.000000 0.000000 0.000000 -22.278817 10.213012 -6.329990 25.660781 -3.959260 12.072186 5.195521 3.408156 -2.047897 
-0.181906 0.928115 0.459293 -3.701694 17.404644 -2.782485 0.000000 0.000000 0.000000 3.963854 -1.257525 -4.355743 -5.546629 0.356511 13.432352 12.148402 25.341758 -3.245658 0.000000 0.000000 0.000000 6.099158 1.853200 -9.705219 -9.951888 3.368314 14.812409 2.499042 21.122780 -6.896855 0.000000 0.000000 0.000000 -1.958497 0.887728 -6.044020 0.346440 0.158541 5.986033 7.522167 7.547117 5.650354 0.000000 0.000000 0.000000 4.031045 -0.692958 -12.491925 0.000000 0.000000 0.000000 15.385061 -9.850026 -1.943179 -28.378529 2.079857 -1.094121 -4.001094 -1.408171 1.326322 0.000000 0.000000 0.000000 -21.754768 10.541337 -6.531313 25.451214 -3.855885 11.847606 5.144245 3.334102 -1.919025 
-0.173676 0.929076 0.451287 -2.966689 17.348166 -3.141885 0.000000 0.000000 0.000000 2.128300 -0.813944 -2.853352 -4.450329 0.223977 11.052795 12.199289 25.404366 -3.229374 0.000000 0.000000 0.000000 4.653064 1.819096 -9.844490 -10.202967 3.578471 16.136264 2.575978 20.747295 -6.553376 0.000000 0.000000 0.000000 -3.366895 1.031484 -5.429717 -0.001902 0.261437 6.723378 7.957012 7.669860 5.236880 0.000000 0.000000 0.000000 4.298660 -0.757001 -13.022783 0.000000 0.000000 0.000000 15.891802 -9.709681 -1.730634 -28.041296 2.004417 -1.290995 -4.848004 -1.821253 1.111339 0.000000 0.000000 0.000000 -21.770769 10.950947 -6.834571 25.909694 -3.676793 11.277300 4.813313 3.040565 -1.598376 
-0.166557 0.929026 0.443661 -2.171006 17.324992 -3.308238 0.000000 0.000000 0.000000 0.457214 -0.405678 -1.588287 -3.524022 0.141562 8.605342 12.072505 25.308208 -3.021492 0.000000 0.000000 0.000000 3.289061 1.776980 -9.988086 -10.508108 3.769580 17.070473 2.667521 20.387535 -6.188262 0.000000 0.000000 0.000000 -5.045529 1.230398 -5.022284 -0.155133 0.324676 7.620004 8.324627 7.887208 4.615822 0.000000 0.000000 0.000000 4.501557 -0.810567 -13.324998 0.000000 0.000000 0.000000 16.551048 -9.612371 -1.507442 -27.778419 1.997671 -1.294451 -5.717248 -2.311680 0.659490 0.000000 0.000000 0.000000 -21.618576 11.327225 -7.105716 26.146378 -3.500598 10.783948 4.549193 2.639155 -0.854985 
-0.159868 0.928335 0.436249 -1.116530 17.306393 -3.437547 0.000000 0.000000 0.000000 -1.564651 0.089277 -0.190894 -2.333944 0.058972 5.862598 11.783824 25.048372 -2.656050 0.000000 0.000000 0.000000 1.613861 1.739938 -10.352836 -10.607100 3.951469 18.473271 2.536952 20.030113 -6.266454 0.000000 0.000000 0.000000 -6.977893 1.457226 -4.430507 -0.314081 0.386483 8.376744 8.662745 8.175175 4.016307 0.000000 0.000000 0.000000 4.647188 -0.838986 -13.649585 0.000000 0.000000 0.000000 16.758412 -9.528711 -1.405916 -26.993835 1.999129 -1.067919 -6.428999 -2.767278 0.120201 0.000000 0.000000 0.000000 -20.970642 11.743440 -7.367582 25.796286 -3.395061 10.553910 4.258828 2.289948 -0.285886 
-0.152735 0.928854 0.431146 0.517965 16.990333 -5.379040 0.000000 0.000000 0.000000 -4.878166 1.762643 5.103025 0.431802 -0.022205 -0.126048 10.810973 24.220023 -1.544481 0.000000 0.000000 0.000000 -0.697162 1.267689 -8.140665 -10.525452 4.018995 19.077034 2.251617 20.281789 -6.911529 0.000000 0.000000 0.000000 -9.417694 1.693646 -1.643987 -0.243298 0.363253 8.022103 8.764537 8.803894 5.392893 0.000000 0.000000 0.000000 4.920051 -0.764702 -15.942102 0.000000 0.000000 0.000000 17.809274 -8.822159 -0.585640 -26.699787 1.404016 -3.139697 -7.600816 -3.180460 0.483835 0.000000 0.000000 0.000000 -20.820983 12.218417 -7.729571 25.381613 -3.017787 9.462473 4.577780 2.346180 0.035882 
